<svg width="266" height="50" viewBox="0 0 266 50" fill="none" xmlns="http://www.w3.org/2000/svg">
<path d="M64.176 36V13.6H78.8V16.896H68.272V23.04H77.84V26.24H68.272V32.704H78.8V36H64.176ZM81.076 36L86.836 28.064L81.076 20.128H85.46L89.492 25.76L93.492 20.128H97.908L92.116 28.064L97.908 36H93.492L89.492 30.368L85.46 36H81.076ZM105.646 36.384C104.28 36.384 103.16 36.1707 102.286 35.744C101.411 35.296 100.76 34.7093 100.334 33.984C99.9071 33.2587 99.6938 32.4587 99.6938 31.584C99.6938 30.112 100.27 28.9173 101.422 28C102.574 27.0827 104.302 26.624 106.606 26.624H110.638V26.24C110.638 25.152 110.328 24.352 109.71 23.84C109.091 23.328 108.323 23.072 107.406 23.072C106.574 23.072 105.848 23.2747 105.23 23.68C104.611 24.064 104.227 24.64 104.078 25.408H100.078C100.184 24.256 100.568 23.2533 101.23 22.4C101.912 21.5467 102.787 20.896 103.854 20.448C104.92 19.9787 106.115 19.744 107.438 19.744C109.699 19.744 111.48 20.3093 112.782 21.44C114.083 22.5707 114.734 24.1707 114.734 26.24V36H111.246L110.862 33.44C110.392 34.2933 109.731 34.9973 108.878 35.552C108.046 36.1067 106.968 36.384 105.646 36.384ZM106.574 33.184C107.747 33.184 108.654 32.8 109.294 32.032C109.955 31.264 110.371 30.3147 110.542 29.184H107.054C105.966 29.184 105.187 29.3867 104.718 29.792C104.248 30.176 104.014 30.656 104.014 31.232C104.014 31.8507 104.248 32.3307 104.718 32.672C105.187 33.0133 105.806 33.184 106.574 33.184ZM118.643 36V20.128H122.259L122.611 22.272C123.123 21.504 123.795 20.896 124.627 20.448C125.48 19.9787 126.461 19.744 127.571 19.744C130.024 19.744 131.763 20.6933 132.787 22.592C133.363 21.7173 134.131 21.024 135.091 20.512C136.072 20 137.139 19.744 138.291 19.744C140.36 19.744 141.949 20.3627 143.059 21.6C144.168 22.8373 144.723 24.6507 144.723 27.04V36H140.627V27.424C140.627 26.0587 140.36 25.0133 139.827 24.288C139.315 23.5627 138.515 23.2 137.427 23.2C136.317 23.2 135.421 23.6053 134.739 24.416C134.077 25.2267 133.747 26.3573 133.747 27.808V36H129.651V27.424C129.651 26.0587 129.384 25.0133 128.851 24.288C128.317 23.5627 127.496 23.2 126.387 23.2C125.299 23.2 124.413 23.6053 123.731 24.416C123.069 25.2267 122.739 26.3573 122.739 27.808V36H118.643ZM158.851 36.384C156.59 36.384 154.649 35.904 153.027 34.944C151.406 33.9627 150.158 32.608 149.283 30.88C148.409 29.1307 147.971 27.1147 147.971 24.832C147.971 22.5493 148.409 20.5333 149.283 18.784C150.158 17.0347 151.406 15.6693 153.027 14.688C154.649 13.7067 156.59 13.216 158.851 13.216C161.539 13.216 163.737 13.888 165.443 15.232C167.171 16.5547 168.249 18.4213 168.675 20.832H164.163C163.886 19.616 163.289 18.6667 162.371 17.984C161.475 17.28 160.281 16.928 158.787 16.928C156.718 16.928 155.097 17.632 153.923 19.04C152.75 20.448 152.163 22.3787 152.163 24.832C152.163 27.2853 152.75 29.216 153.923 30.624C155.097 32.0107 156.718 32.704 158.787 32.704C160.281 32.704 161.475 32.384 162.371 31.744C163.289 31.0827 163.886 30.176 164.163 29.024H168.675C168.249 31.328 167.171 33.1307 165.443 34.432C163.737 35.7333 161.539 36.384 158.851 36.384ZM172.205 36V20.128H175.853L176.237 23.104C176.813 22.08 177.592 21.2693 178.573 20.672C179.576 20.0533 180.749 19.744 182.093 19.744V24.064H180.941C180.045 24.064 179.245 24.2027 178.541 24.48C177.837 24.7573 177.282 25.2373 176.877 25.92C176.493 26.6027 176.301 27.552 176.301 28.768V36H172.205ZM192.323 36.384C190.723 36.384 189.305 36.0427 188.067 35.36C186.83 34.6773 185.859 33.7173 185.155 32.48C184.451 31.2427 184.099 29.8133 184.099 28.192C184.099 26.5493 184.441 25.088 185.123 23.808C185.827 22.528 186.787 21.536 188.003 20.832C189.241 20.1067 190.691 19.744 192.355 19.744C193.913 19.744 195.289 20.0853 196.483 20.768C197.678 21.4507 198.606 22.3893 199.267 23.584C199.95 24.7573 200.291 26.0693 200.291 27.52C200.291 27.7547 200.281 28 200.259 28.256C200.259 28.512 200.249 28.7787 200.227 29.056H188.163C188.249 30.2933 188.675 31.264 189.443 31.968C190.233 32.672 191.182 33.024 192.291 33.024C193.123 33.024 193.817 32.8427 194.371 32.48C194.947 32.096 195.374 31.6053 195.651 31.008H199.811C199.513 32.0107 199.011 32.928 198.307 33.76C197.625 34.5707 196.771 35.2107 195.747 35.68C194.745 36.1493 193.603 36.384 192.323 36.384ZM192.355 23.072C191.353 23.072 190.467 23.36 189.699 23.936C188.931 24.4907 188.441 25.344 188.227 26.496H196.131C196.067 25.4507 195.683 24.6187 194.979 24C194.275 23.3813 193.401 23.072 192.355 23.072ZM209.208 36.384C207.843 36.384 206.723 36.1707 205.848 35.744C204.974 35.296 204.323 34.7093 203.896 33.984C203.47 33.2587 203.256 32.4587 203.256 31.584C203.256 30.112 203.832 28.9173 204.984 28C206.136 27.0827 207.864 26.624 210.168 26.624H214.2V26.24C214.2 25.152 213.891 24.352 213.272 23.84C212.654 23.328 211.886 23.072 210.968 23.072C210.136 23.072 209.411 23.2747 208.792 23.68C208.174 24.064 207.79 24.64 207.64 25.408H203.64C203.747 24.256 204.131 23.2533 204.792 22.4C205.475 21.5467 206.35 20.896 207.416 20.448C208.483 19.9787 209.678 19.744 211 19.744C213.262 19.744 215.043 20.3093 216.344 21.44C217.646 22.5707 218.296 24.1707 218.296 26.24V36H214.808L214.424 33.44C213.955 34.2933 213.294 34.9973 212.44 35.552C211.608 36.1067 210.531 36.384 209.208 36.384ZM210.136 33.184C211.31 33.184 212.216 32.8 212.856 32.032C213.518 31.264 213.934 30.3147 214.104 29.184H210.616C209.528 29.184 208.75 29.3867 208.28 29.792C207.811 30.176 207.576 30.656 207.576 31.232C207.576 31.8507 207.811 32.3307 208.28 32.672C208.75 33.0133 209.368 33.184 210.136 33.184ZM229.058 36C227.394 36 226.061 35.5947 225.058 34.784C224.056 33.9733 223.554 32.5333 223.554 30.464V23.552H220.834V20.128H223.554L224.034 15.872H227.65V20.128H231.938V23.552H227.65V30.496C227.65 31.264 227.81 31.7973 228.13 32.096C228.472 32.3733 229.048 32.512 229.858 32.512H231.842V36H229.058ZM242.665 36.384C241.129 36.384 239.742 36.032 238.505 35.328C237.289 34.624 236.318 33.6533 235.593 32.416C234.889 31.1573 234.537 29.7067 234.537 28.064C234.537 26.4213 234.899 24.9813 235.625 23.744C236.35 22.4853 237.321 21.504 238.537 20.8C239.774 20.096 241.161 19.744 242.697 19.744C244.211 19.744 245.577 20.096 246.793 20.8C248.03 21.504 249.001 22.4853 249.705 23.744C250.43 24.9813 250.793 26.4213 250.793 28.064C250.793 29.7067 250.43 31.1573 249.705 32.416C249.001 33.6533 248.03 34.624 246.793 35.328C245.555 36.032 244.179 36.384 242.665 36.384ZM242.665 32.832C243.731 32.832 244.659 32.4373 245.449 31.648C246.238 30.8373 246.633 29.6427 246.633 28.064C246.633 26.4853 246.238 25.3013 245.449 24.512C244.659 23.7013 243.742 23.296 242.697 23.296C241.609 23.296 240.67 23.7013 239.881 24.512C239.113 25.3013 238.729 26.4853 238.729 28.064C238.729 29.6427 239.113 30.8373 239.881 31.648C240.67 32.4373 241.598 32.832 242.665 32.832ZM254.455 36V20.128H258.103L258.487 23.104C259.063 22.08 259.842 21.2693 260.823 20.672C261.826 20.0533 262.999 19.744 264.343 19.744V24.064H263.191C262.295 24.064 261.495 24.2027 260.791 24.48C260.087 24.7573 259.532 25.2373 259.127 25.92C258.743 26.6027 258.551 27.552 258.551 28.768V36H254.455Z" fill="#202020"/>
<rect width="50" height="50" rx="16" fill="#003BAE"/>
<path d="M31.5002 35.2001C32.1928 34.8971 32.8614 34.5419 33.5002 34.1376V39.0001C33.5002 39.2653 33.3948 39.5196 33.2073 39.7072C33.0197 39.8947 32.7654 40.0001 32.5002 40.0001C32.2349 40.0001 31.9806 39.8947 31.7931 39.7072C31.6055 39.5196 31.5002 39.2653 31.5002 39.0001V35.2001ZM24.1127 20.5251C23.9915 20.7614 23.9669 21.0355 24.0438 21.2896C24.1207 21.5438 24.2933 21.7581 24.5252 21.8876L30.3752 25.0001L32.5002 23.8626L25.4752 20.1126C25.2389 19.9915 24.9648 19.9668 24.7106 20.0437C24.4565 20.1207 24.2421 20.2932 24.1127 20.5251ZM40.4752 20.1126L25.4752 12.1126C25.3277 12.0389 25.165 12.0005 25.0002 12.0005C24.8353 12.0005 24.6727 12.0389 24.5252 12.1126L9.52516 20.1126C9.36614 20.1999 9.23351 20.3283 9.14113 20.4845C9.04874 20.6406 9 20.8187 9 21.0001C9 21.1815 9.04874 21.3596 9.14113 21.5157C9.23351 21.6718 9.36614 21.8003 9.52516 21.8876L12.5002 23.4626V29.6876C12.4983 30.1168 12.639 30.5345 12.9002 30.8751C13.8877 32.2001 17.6877 36.5001 25.0002 36.5001C27.2345 36.5187 29.4482 36.0717 31.5002 35.1876V25.6001L30.3752 25.0001L25.0002 27.8626L13.9752 21.9876L12.1252 21.0001L25.0002 14.1376L37.8752 21.0001L36.0252 21.9876L32.5002 23.8626L32.9752 24.1126C33.1443 24.2102 33.2828 24.3531 33.3752 24.5251C33.4583 24.6695 33.5014 24.8334 33.5002 25.0001V34.1376C34.8814 33.2686 36.0998 32.1644 37.1002 30.8751C37.3613 30.5345 37.502 30.1168 37.5002 29.6876V23.4626L40.4752 21.8876C40.6342 21.8003 40.7668 21.6718 40.8592 21.5157C40.9516 21.3596 41.0003 21.1815 41.0003 21.0001C41.0003 20.8187 40.9516 20.6406 40.8592 20.4845C40.7668 20.3283 40.6342 20.1999 40.4752 20.1126Z" fill="white"/>
</svg>
