<svg width="320" height="100" viewBox="0 0 320 100" fill="none" xmlns="http://www.w3.org/2000/svg">
<rect width="320" height="100" fill="white"/>
<path d="M88.176 61V38.6H102.8V41.896H92.272V48.04H101.84V51.24H92.272V57.704H102.8V61H88.176ZM105.076 61L110.836 53.064L105.076 45.128H109.46L113.492 50.76L117.492 45.128H121.908L116.116 53.064L121.908 61H117.492L113.492 55.368L109.46 61H105.076ZM129.646 61.384C128.28 61.384 127.16 61.1707 126.286 60.744C125.411 60.296 124.76 59.7093 124.334 58.984C123.907 58.2587 123.694 57.4587 123.694 56.584C123.694 55.112 124.27 53.9173 125.422 53C126.574 52.0827 128.302 51.624 130.606 51.624H134.638V51.24C134.638 50.152 134.328 49.352 133.71 48.84C133.091 48.328 132.323 48.072 131.406 48.072C130.574 48.072 129.848 48.2747 129.23 48.68C128.611 49.064 128.227 49.64 128.078 50.408H124.078C124.184 49.256 124.568 48.2533 125.23 47.4C125.912 46.5467 126.787 45.896 127.854 45.448C128.92 44.9787 130.115 44.744 131.438 44.744C133.699 44.744 135.48 45.3093 136.782 46.44C138.083 47.5707 138.734 49.1707 138.734 51.24V61H135.246L134.862 58.44C134.392 59.2933 133.731 59.9973 132.878 60.552C132.046 61.1067 130.968 61.384 129.646 61.384ZM130.574 58.184C131.747 58.184 132.654 57.8 133.294 57.032C133.955 56.264 134.371 55.3147 134.542 54.184H131.054C129.966 54.184 129.187 54.3867 128.718 54.792C128.248 55.176 128.014 55.656 128.014 56.232C128.014 56.8507 128.248 57.3307 128.718 57.672C129.187 58.0133 129.806 58.184 130.574 58.184ZM142.643 61V45.128H146.259L146.611 47.272C147.123 46.504 147.795 45.896 148.627 45.448C149.48 44.9787 150.461 44.744 151.571 44.744C154.024 44.744 155.763 45.6933 156.787 47.592C157.363 46.7173 158.131 46.024 159.091 45.512C160.072 45 161.139 44.744 162.291 44.744C164.36 44.744 165.949 45.3627 167.059 46.6C168.168 47.8373 168.723 49.6507 168.723 52.04V61H164.627V52.424C164.627 51.0587 164.36 50.0133 163.827 49.288C163.315 48.5627 162.515 48.2 161.427 48.2C160.317 48.2 159.421 48.6053 158.739 49.416C158.077 50.2267 157.747 51.3573 157.747 52.808V61H153.651V52.424C153.651 51.0587 153.384 50.0133 152.851 49.288C152.317 48.5627 151.496 48.2 150.387 48.2C149.299 48.2 148.413 48.6053 147.731 49.416C147.069 50.2267 146.739 51.3573 146.739 52.808V61H142.643ZM182.851 61.384C180.59 61.384 178.649 60.904 177.027 59.944C175.406 58.9627 174.158 57.608 173.283 55.88C172.409 54.1307 171.971 52.1147 171.971 49.832C171.971 47.5493 172.409 45.5333 173.283 43.784C174.158 42.0347 175.406 40.6693 177.027 39.688C178.649 38.7067 180.59 38.216 182.851 38.216C185.539 38.216 187.737 38.888 189.443 40.232C191.171 41.5547 192.249 43.4213 192.675 45.832H188.163C187.886 44.616 187.289 43.6667 186.371 42.984C185.475 42.28 184.281 41.928 182.787 41.928C180.718 41.928 179.097 42.632 177.923 44.04C176.75 45.448 176.163 47.3787 176.163 49.832C176.163 52.2853 176.75 54.216 177.923 55.624C179.097 57.0107 180.718 57.704 182.787 57.704C184.281 57.704 185.475 57.384 186.371 56.744C187.289 56.0827 187.886 55.176 188.163 54.024H192.675C192.249 56.328 191.171 58.1307 189.443 59.432C187.737 60.7333 185.539 61.384 182.851 61.384ZM196.205 61V45.128H199.853L200.237 48.104C200.813 47.08 201.592 46.2693 202.573 45.672C203.576 45.0533 204.749 44.744 206.093 44.744V49.064H204.941C204.045 49.064 203.245 49.2027 202.541 49.48C201.837 49.7573 201.282 50.2373 200.877 50.92C200.493 51.6027 200.301 52.552 200.301 53.768V61H196.205ZM216.323 61.384C214.723 61.384 213.305 61.0427 212.067 60.36C210.83 59.6773 209.859 58.7173 209.155 57.48C208.451 56.2427 208.099 54.8133 208.099 53.192C208.099 51.5493 208.441 50.088 209.123 48.808C209.827 47.528 210.787 46.536 212.003 45.832C213.241 45.1067 214.691 44.744 216.355 44.744C217.913 44.744 219.289 45.0853 220.483 45.768C221.678 46.4507 222.606 47.3893 223.267 48.584C223.95 49.7573 224.291 51.0693 224.291 52.52C224.291 52.7547 224.281 53 224.259 53.256C224.259 53.512 224.249 53.7787 224.227 54.056H212.163C212.249 55.2933 212.675 56.264 213.443 56.968C214.233 57.672 215.182 58.024 216.291 58.024C217.123 58.024 217.817 57.8427 218.371 57.48C218.947 57.096 219.374 56.6053 219.651 56.008H223.811C223.513 57.0107 223.011 57.928 222.307 58.76C221.625 59.5707 220.771 60.2107 219.747 60.68C218.745 61.1493 217.603 61.384 216.323 61.384ZM216.355 48.072C215.353 48.072 214.467 48.36 213.699 48.936C212.931 49.4907 212.441 50.344 212.227 51.496H220.131C220.067 50.4507 219.683 49.6187 218.979 49C218.275 48.3813 217.401 48.072 216.355 48.072ZM233.208 61.384C231.843 61.384 230.723 61.1707 229.848 60.744C228.974 60.296 228.323 59.7093 227.896 58.984C227.47 58.2587 227.256 57.4587 227.256 56.584C227.256 55.112 227.832 53.9173 228.984 53C230.136 52.0827 231.864 51.624 234.168 51.624H238.2V51.24C238.2 50.152 237.891 49.352 237.272 48.84C236.654 48.328 235.886 48.072 234.968 48.072C234.136 48.072 233.411 48.2747 232.792 48.68C232.174 49.064 231.79 49.64 231.64 50.408H227.64C227.747 49.256 228.131 48.2533 228.792 47.4C229.475 46.5467 230.35 45.896 231.416 45.448C232.483 44.9787 233.678 44.744 235 44.744C237.262 44.744 239.043 45.3093 240.344 46.44C241.646 47.5707 242.296 49.1707 242.296 51.24V61H238.808L238.424 58.44C237.955 59.2933 237.294 59.9973 236.44 60.552C235.608 61.1067 234.531 61.384 233.208 61.384ZM234.136 58.184C235.31 58.184 236.216 57.8 236.856 57.032C237.518 56.264 237.934 55.3147 238.104 54.184H234.616C233.528 54.184 232.75 54.3867 232.28 54.792C231.811 55.176 231.576 55.656 231.576 56.232C231.576 56.8507 231.811 57.3307 232.28 57.672C232.75 58.0133 233.368 58.184 234.136 58.184ZM253.058 61C251.394 61 250.061 60.5947 249.058 59.784C248.056 58.9733 247.554 57.5333 247.554 55.464V48.552H244.834V45.128H247.554L248.034 40.872H251.65V45.128H255.938V48.552H251.65V55.496C251.65 56.264 251.81 56.7973 252.13 57.096C252.472 57.3733 253.048 57.512 253.858 57.512H255.842V61H253.058ZM266.665 61.384C265.129 61.384 263.742 61.032 262.505 60.328C261.289 59.624 260.318 58.6533 259.593 57.416C258.889 56.1573 258.537 54.7067 258.537 53.064C258.537 51.4213 258.899 49.9813 259.625 48.744C260.35 47.4853 261.321 46.504 262.537 45.8C263.774 45.096 265.161 44.744 266.697 44.744C268.211 44.744 269.577 45.096 270.793 45.8C272.03 46.504 273.001 47.4853 273.705 48.744C274.43 49.9813 274.793 51.4213 274.793 53.064C274.793 54.7067 274.43 56.1573 273.705 57.416C273.001 58.6533 272.03 59.624 270.793 60.328C269.555 61.032 268.179 61.384 266.665 61.384ZM266.665 57.832C267.731 57.832 268.659 57.4373 269.449 56.648C270.238 55.8373 270.633 54.6427 270.633 53.064C270.633 51.4853 270.238 50.3013 269.449 49.512C268.659 48.7013 267.742 48.296 266.697 48.296C265.609 48.296 264.67 48.7013 263.881 49.512C263.113 50.3013 262.729 51.4853 262.729 53.064C262.729 54.6427 263.113 55.8373 263.881 56.648C264.67 57.4373 265.598 57.832 266.665 57.832ZM278.455 61V45.128H282.103L282.487 48.104C283.063 47.08 283.842 46.2693 284.823 45.672C285.826 45.0533 286.999 44.744 288.343 44.744V49.064H287.191C286.295 49.064 285.495 49.2027 284.791 49.48C284.087 49.7573 283.532 50.2373 283.127 50.92C282.743 51.6027 282.551 52.552 282.551 53.768V61H278.455Z" fill="#202020"/>
<rect x="24" y="25" width="50" height="50" rx="16" fill="#003BAE"/>
<path d="M55.5 60.2C56.1926 59.897 56.8612 59.5418 57.5 59.1375V64C57.5 64.2652 57.3946 64.5196 57.2071 64.7071C57.0195 64.8946 56.7652 65 56.5 65C56.2348 65 55.9804 64.8946 55.7929 64.7071C55.6053 64.5196 55.5 64.2652 55.5 64V60.2ZM48.1125 45.525C47.9914 45.7613 47.9667 46.0354 48.0436 46.2895C48.1206 46.5437 48.2931 46.758 48.525 46.8875L54.375 50L56.5 48.8625L49.475 45.1125C49.2387 44.9914 48.9646 44.9667 48.7104 45.0436C48.4563 45.1206 48.2419 45.2931 48.1125 45.525ZM64.475 45.1125L49.475 37.1125C49.3275 37.0388 49.1649 37.0004 49 37.0004C48.8351 37.0004 48.6725 37.0388 48.525 37.1125L33.525 45.1125C33.366 45.1998 33.2333 45.3282 33.1409 45.4844C33.0486 45.6405 32.9998 45.8186 32.9998 46C32.9998 46.1814 33.0486 46.3595 33.1409 46.5156C33.2333 46.6717 33.366 46.8002 33.525 46.8875L36.5 48.4625V54.6875C36.4981 55.1167 36.6388 55.5344 36.9 55.875C37.8875 57.2 41.6875 61.5 49 61.5C51.2343 61.5186 53.448 61.0716 55.5 60.1875V50.6L54.375 50L49 52.8625L37.975 46.9875L36.125 46L49 39.1375L61.875 46L60.025 46.9875L56.5 48.8625L56.975 49.1125C57.1441 49.2101 57.2826 49.353 57.375 49.525C57.4581 49.6694 57.5013 49.8334 57.5 50V59.1375C58.8813 58.2685 60.0997 57.1643 61.1 55.875C61.3612 55.5344 61.5019 55.1167 61.5 54.6875V48.4625L64.475 46.8875C64.634 46.8002 64.7666 46.6717 64.859 46.5156C64.9514 46.3595 65.0001 46.1814 65.0001 46C65.0001 45.8186 64.9514 45.6405 64.859 45.4844C64.7666 45.3282 64.634 45.1998 64.475 45.1125V45.1125Z" fill="white"/>
</svg>
