<svg width="50" height="50" viewBox="0 0 50 50" fill="none" xmlns="http://www.w3.org/2000/svg">
<rect width="50" height="50" rx="16" fill="#003BAE"/>
<path d="M31.5 35.2C32.1926 34.897 32.8612 34.5418 33.5 34.1375V39C33.5 39.2652 33.3946 39.5196 33.2071 39.7071C33.0195 39.8946 32.7652 40 32.5 40C32.2348 40 31.9804 39.8946 31.7929 39.7071C31.6053 39.5196 31.5 39.2652 31.5 39V35.2ZM24.1125 20.525C23.9914 20.7613 23.9667 21.0354 24.0436 21.2895C24.1206 21.5437 24.2931 21.758 24.525 21.8875L30.375 25L32.5 23.8625L25.475 20.1125C25.2387 19.9914 24.9646 19.9667 24.7104 20.0436C24.4563 20.1206 24.2419 20.2931 24.1125 20.525ZM40.475 20.1125L25.475 12.1125C25.3275 12.0388 25.1649 12.0004 25 12.0004C24.8351 12.0004 24.6725 12.0388 24.525 12.1125L9.52498 20.1125C9.36596 20.1998 9.23333 20.3282 9.14094 20.4844C9.04856 20.6405 8.99982 20.8186 8.99982 21C8.99982 21.1814 9.04856 21.3595 9.14094 21.5156C9.23333 21.6717 9.36596 21.8002 9.52498 21.8875L12.5 23.4625V29.6875C12.4981 30.1167 12.6388 30.5344 12.9 30.875C13.8875 32.2 17.6875 36.5 25 36.5C27.2343 36.5186 29.448 36.0716 31.5 35.1875V25.6L30.375 25L25 27.8625L13.975 21.9875L12.125 21L25 14.1375L37.875 21L36.025 21.9875L32.5 23.8625L32.975 24.1125C33.1441 24.2101 33.2826 24.353 33.375 24.525C33.4581 24.6694 33.5013 24.8334 33.5 25V34.1375C34.8813 33.2685 36.0997 32.1643 37.1 30.875C37.3612 30.5344 37.5019 30.1167 37.5 29.6875V23.4625L40.475 21.8875C40.634 21.8002 40.7666 21.6717 40.859 21.5156C40.9514 21.3595 41.0001 21.1814 41.0001 21C41.0001 20.8186 40.9514 20.6405 40.859 20.4844C40.7666 20.3282 40.634 20.1998 40.475 20.1125Z" fill="white"/>
</svg>
